<?xml version="1.0" encoding="UTF-8" standalone="no"?>
<svg width="374px" height="374px" viewBox="0 0 374 374" version="1.1" xmlns="http://www.w3.org/2000/svg" xmlns:xlink="http://www.w3.org/1999/xlink">
    <!-- Generator: Sketch 3.8.3 (29802) - http://www.bohemiancoding.com/sketch -->
    <title>Artboard 1</title>
    <desc>Created with Sketch.</desc>
    <defs></defs>
    <g id="Page-1" stroke="none" stroke-width="1" fill="none" fill-rule="evenodd">
        <g id="Artboard-1">
            <g id="ebay.com" transform="translate(24.000000, 121.000000)">
                <path d="M42.3644283,28.7000487 C19.3155837,28.7000487 0.108996697,38.4866815 0.108996697,68.0125058 C0.108996697,91.4034589 13.0240361,106.133676 42.9595749,106.133676 C78.1951056,106.133676 80.4538309,82.9035873 80.4538309,82.9035873 L63.3805537,82.9035873 C63.3805537,82.9035873 59.7198999,95.4120971 41.9180679,95.4120971 C27.418962,95.4120971 16.9906366,85.6093571 16.9906366,71.8693909 L82.2392716,71.8693909 L82.2392716,63.2473593 C82.2392716,49.6542131 73.6172953,28.7000487 42.3644283,28.7000487 L42.3644283,28.7000487 Z M41.7692807,39.7194491 C55.5709283,39.7194491 64.980011,48.1816822 64.980011,60.8647855 L17.3682573,60.8647855 C17.3682573,47.40012 29.6495075,39.7194491 41.7692807,39.7194491 L41.7692807,39.7194491 Z" id="e" fill="#E53238"></path>
                <path d="M82.2271606,0.109170316 L82.2271606,91.3059229 C82.2271606,96.4825396 81.8580027,103.751103 81.8580027,103.751103 L98.1423116,103.751103 C98.1423116,103.751103 98.726811,98.5307182 98.726811,93.7597942 C98.726811,93.7597942 106.772311,106.357042 128.648623,106.357042 C151.685261,106.357042 167.33317,90.3501175 167.33317,67.4168618 C167.33317,46.0823847 152.96006,28.9234145 128.685814,28.9234145 C105.954698,28.9234145 98.8912746,41.2085575 98.8912746,41.2085575 L98.8912746,0.109170316 L82.2271606,0.109170316 Z M124.482589,40.2034091 C140.126258,40.2034091 150.073914,51.8234029 150.073914,67.4168618 C150.073914,84.1380164 138.584704,95.0770473 124.594183,95.0770473 C107.897722,95.0770473 98.8912746,82.029648 98.8912746,67.5657731 C98.8912746,54.08826 106.973024,40.2034091 124.482589,40.2034091 L124.482589,40.2034091 Z" id="b" fill="#0064D2"></path>
                <path d="M207.803159,28.7000487 C173.127916,28.7000487 170.904054,47.7023498 170.904054,50.7388505 L188.16331,50.7388505 C188.16331,50.7388505 189.068381,39.6449935 206.612868,39.6449935 C218.01356,39.6449935 226.847868,44.8676236 226.847868,54.9083531 L226.847868,58.4822127 L206.612868,58.4822127 C179.749469,58.4822127 165.547729,66.3473727 165.547729,82.3079444 C165.547729,98.0154393 178.669683,106.561795 196.40238,106.561795 C220.569293,106.561795 228.354324,93.1970487 228.354324,93.1970487 C228.354324,98.5128131 228.763815,103.751103 228.763815,103.751103 L244.107124,103.751103 C244.107124,103.751103 243.511973,97.2580789 243.511973,93.1039789 L243.511973,57.1978571 C243.511973,33.6547047 224.537787,28.7000487 207.803159,28.7000487 L207.803159,28.7000487 Z M226.847868,69.2037916 L226.847868,73.9689382 C226.847868,80.183988 223.01594,95.6354629 200.456821,95.6354629 C188.103524,95.6354629 182.806996,89.4651109 182.806996,82.3079444 C182.806996,69.2876465 200.643516,69.2037916 226.847868,69.2037916 L226.847868,69.2037916 Z" id="a" fill="#F5AF02"></path>
                <polygon id="y" fill="#86B817" points="234.218121 31.6812665 253.634792 31.6812665 281.500413 87.5547338 309.30228 31.6812665 326.891 31.6812665 276.250374 131.153662 257.800816 131.153662 272.413803 103.424375"></polygon>
            </g>
        </g>
    </g>
</svg>