<?xml version="1.0" encoding="UTF-8" standalone="no"?>
<svg width="168px" height="168px" viewBox="0 0 168 168" version="1.1" xmlns="http://www.w3.org/2000/svg" xmlns:xlink="http://www.w3.org/1999/xlink">
    <!-- Generator: Sketch 3.8.3 (29802) - http://www.bohemiancoding.com/sketch -->
    <title>kickstarter-logo-k-color</title>
    <desc>Created with Sketch.</desc>
    <defs>
        <polygon id="path-1" points="167.001 166.94 0 166.94 0 83.4705 0 0.001 167.001 0.001 167.001 166.94"></polygon>
    </defs>
    <g id="Page-1" stroke="none" stroke-width="1" fill="none" fill-rule="evenodd">
        <g id="kickstarter-logo-k-color">
            <g id="Group-3" transform="translate(0.000000, 1.000000)">
                <mask id="mask-2" fill="white">
                    <use xlink:href="#path-1"></use>
                </mask>
                <g id="Clip-2"></g>
                <path d="M157.001,167 L10,167 C4.477,167 0,162.524 0,157 L0,10.001 C0,4.478 4.477,0.001 10,0.001 L157.001,0.001 C162.523,0.001 167.001,4.478 167.001,10.001 L167.001,157 C167.001,162.524 162.523,167 157.001,167" id="Fill-1" fill="#161A13" mask="url(#mask-2)"></path>
            </g>
            <path d="M76.41,69.973 L93.145,45.727 C96.309,41.159 100.393,38.875 105.401,38.875 C109.486,38.875 113.02,40.325 116.009,43.223 C118.995,46.122 120.488,49.592 120.488,53.633 C120.488,56.62 119.699,59.257 118.117,61.54 L103.028,83.48 L121.477,106.869 C123.322,109.197 124.244,111.922 124.244,115.039 C124.244,119.17 122.796,122.715 119.896,125.68 C116.997,128.647 113.481,130.127 109.354,130.127 C104.829,130.127 101.382,128.656 99.009,125.713 L76.41,97.514 L76.41,113.065 C76.41,117.5 75.642,120.947 74.104,123.408 C71.293,127.887 67.208,130.127 61.85,130.127 C56.974,130.127 53.195,128.481 50.517,125.186 C48.013,122.154 46.762,118.135 46.762,113.129 L46.762,55.477 C46.762,50.735 48.034,46.826 50.583,43.751 C53.262,40.501 56.951,38.875 61.651,38.875 C66.132,38.875 69.865,40.501 72.852,43.751 C74.521,45.551 75.575,47.374 76.014,49.219 C76.278,50.362 76.41,52.491 76.41,55.61 L76.41,69.973" id="Fill-4" fill="#55B367"></path>
            <path d="M157.052,167.932 L10.051,167.932 C4.528,167.932 0.051,163.456 0.051,157.932 L0.051,10.933 C0.051,5.41 4.528,0.933 10.051,0.933 L157.052,0.933 C162.574,0.933 167.052,5.41 167.052,10.933 L167.052,157.932 C167.052,163.456 162.574,167.932 157.052,167.932" id="Fill-5" fill="#161A13"></path>
            <path d="M76.461,69.906 L93.196,45.66 C96.359,41.091 100.444,38.807 105.452,38.807 C109.537,38.807 113.071,40.257 116.06,43.156 C119.046,46.054 120.539,49.525 120.539,53.566 C120.539,56.552 119.75,59.189 118.168,61.472 L103.079,83.412 L121.528,106.802 C123.373,109.13 124.295,111.854 124.295,114.972 C124.295,119.102 122.847,122.647 119.947,125.612 C117.048,128.579 113.532,130.059 109.405,130.059 C104.88,130.059 101.433,128.589 99.06,125.645 L76.461,97.446 L76.461,112.997 C76.461,117.432 75.692,120.88 74.155,123.341 C71.344,127.819 67.259,130.059 61.9,130.059 C57.024,130.059 53.246,128.413 50.567,125.118 C48.063,122.087 46.812,118.067 46.812,113.061 L46.812,55.41 C46.812,50.667 48.085,46.758 50.634,43.683 C53.312,40.433 57.002,38.807 61.702,38.807 C66.183,38.807 69.916,40.433 72.903,43.683 C74.571,45.484 75.626,47.306 76.064,49.152 C76.329,50.294 76.461,52.423 76.461,55.542 L76.461,69.906" id="Fill-6" fill="#56B367"></path>
        </g>
    </g>
</svg>