<?xml version="1.0" encoding="UTF-8" standalone="no"?>
<svg width="168px" height="168px" viewBox="0 0 168 168" version="1.1" xmlns="http://www.w3.org/2000/svg" xmlns:xlink="http://www.w3.org/1999/xlink">
    <!-- Generator: Sketch 3.8.3 (29802) - http://www.bohemiancoding.com/sketch -->
    <title>Spotify_Icon_RGB_Green</title>
    <desc>Created with Sketch.</desc>
    <defs></defs>
    <g id="Page-1" stroke="none" stroke-width="1" fill="none" fill-rule="evenodd">
        <path d="M133.28,74.754 C106.286,58.723 61.76,57.249 35.991,65.07 C31.852,66.326 27.476,63.99 26.222,59.852 C24.968,55.711 27.302,51.338 31.443,50.08 C61.024,41.101 110.199,42.835 141.275,61.282 C144.997,63.492 146.218,68.299 144.012,72.015 C141.804,75.737 136.993,76.964 133.28,74.754 L133.28,74.754 Z M132.396,98.498 C130.502,101.571 126.484,102.535 123.415,100.648 C100.91,86.815 66.593,82.807 39.968,90.889 C36.515,91.932 32.869,89.986 31.82,86.539 C30.78,83.087 32.727,79.447 36.174,78.397 C66.589,69.167 104.4,73.637 130.248,89.522 C133.317,91.412 134.283,95.432 132.396,98.498 L132.396,98.498 Z M122.149,121.301 C120.644,123.769 117.431,124.542 114.972,123.038 C95.307,111.019 70.555,108.305 41.405,114.963 C38.596,115.607 35.796,113.847 35.155,111.038 C34.512,108.23 36.266,105.43 39.081,104.789 C70.981,97.497 98.344,100.635 120.417,114.123 C122.878,115.626 123.653,118.841 122.149,121.301 L122.149,121.301 Z M83.743,0.514 C37.494,0.514 0,38.007 0,84.256 C0,130.51 37.494,168 83.743,168 C129.994,168 167.486,130.51 167.486,84.256 C167.486,38.007 129.994,0.514 83.743,0.514 L83.743,0.514 Z" id="Spotify_Icon_RGB_Green" fill="#4DB05B"></path>
    </g>
</svg>