<?xml version="1.0" encoding="UTF-8" standalone="no"?>
<svg width="433px" height="433px" viewBox="0 0 433 433" version="1.1" xmlns="http://www.w3.org/2000/svg" xmlns:xlink="http://www.w3.org/1999/xlink">
    <!-- Generator: Sketch 3.8.3 (29802) - http://www.bohemiancoding.com/sketch -->
    <title>Artboard 1</title>
    <desc>Created with Sketch.</desc>
    <defs>
        <linearGradient x1="8.80079024%" y1="26.5036249%" x2="38.9903248%" y2="40.6192636%" id="linearGradient-1">
            <stop stop-color="#C7140B" offset="0%"></stop>
            <stop stop-color="#FF3C1F" offset="75%"></stop>
        </linearGradient>
        <linearGradient x1="-4.89820839%" y1="41.3855318%" x2="87.085577%" y2="60.3346333%" id="linearGradient-2">
            <stop stop-color="#C7140B" offset="0%"></stop>
            <stop stop-color="#FF3C1F" offset="75%"></stop>
        </linearGradient>
        <linearGradient x1="49.9998593%" y1="99.9999286%" x2="49.9998593%" y2="-0.000142859936%" id="linearGradient-3">
            <stop stop-color="#FF3C1F" offset="0%"></stop>
            <stop stop-color="#FF3C1F" offset="85%"></stop>
            <stop stop-color="#FF7700" offset="95%"></stop>
        </linearGradient>
        <linearGradient x1="10.1530224%" y1="54.0791429%" x2="106.954306%" y2="38.0487143%" id="linearGradient-4">
            <stop stop-color="#FF3C1F" offset="0%"></stop>
            <stop stop-color="#FF3C1F" offset="70%"></stop>
            <stop stop-color="#C7140B" offset="100%"></stop>
        </linearGradient>
        <linearGradient x1="50.0007328%" y1="99.9995714%" x2="50.0007328%" y2="0.000697514749%" id="linearGradient-5">
            <stop stop-color="#FF3C1F" offset="0%"></stop>
            <stop stop-color="#FF3C1F" offset="85%"></stop>
            <stop stop-color="#FF7700" offset="95%"></stop>
        </linearGradient>
    </defs>
    <g id="Page-1" stroke="none" stroke-width="1" fill="none" fill-rule="evenodd">
        <g id="Artboard-1">
            <g id="Group" transform="translate(30.000000, 158.000000)">
                <path d="M333.972027,0.00414893617 L315.672622,53.8755957 L304.396107,9.96159574 C301.839609,0 298.550902,0 296.67924,0 C296.67924,0 292.575213,0.000829787234 288.47368,1.17248936 L279.631489,40.2928085 L296.70168,116.174362 L330.777236,116.174362 L373.86536,0.00414893617 L333.972027,0.00414893617 L333.972027,0.00414893617 Z" id="Shape" fill="url(#linearGradient-1)"></path>
                <path d="M247.942053,54.0100213 L233.94448,10.0537021 C230.95248,0.659680851 226.65896,0.000829787234 224.058413,0.000829787234 C224.058413,0.000829787234 219.175636,0.000829787234 213.997813,1.17248936 L213.997813,69.4399149 L232.282258,116.173532 L237.627964,116.174362 L255.515969,115.002702 L247.942053,54.0100213 L247.942053,54.0100213 Z" id="Shape" fill="url(#linearGradient-2)"></path>
                <path d="M296.67924,0.00663829787 L265.741129,0.014106383 C263.428147,0.014106383 257.312831,0.00663829787 255.626507,9.96159574 L237.627964,116.174362 L265.836707,116.174362 L289.041329,9.96159574 C291.217178,0.00414893617 295.987756,0.00663829787 296.67924,0.00663829787 L296.67924,0.00663829787 Z" id="Shape" fill="url(#linearGradient-3)"></path>
                <path d="M109.277813,1.17248936 C109.277813,1.17248936 104.291147,0.00414893617 99.3053111,0.00414893617 L0,0.00414893617 L12.3104178,33.1956383 L42.7889244,33.1956383 L42.7889244,116.174362 L76.0333689,116.174362 L76.0333689,33.1956383 L109.277813,33.1956383 L109.277813,1.17248936 L109.277813,1.17248936 Z" id="Shape" fill="url(#linearGradient-4)"></path>
                <path d="M192.388924,0.000829787234 C186.881151,0.000829787234 182.415591,4.46259574 182.415591,9.96159574 L182.415591,51.8451064 L146.560627,6.58270213 C143.296853,2.27942553 138.050049,0.0224042553 133.321027,0.0224042553 L99.30448,0.0049787234 C99.30448,0.0049787234 107.61476,0.0049787234 107.61476,9.96325532 L107.61476,116.175191 L140.859204,116.175191 L140.859204,52.8831702 L186.101569,110.000745 C189.40856,114.094085 194.265573,116.205064 199.153338,116.173532 L215.660036,116.173532 L215.660036,9.96076596 C215.660036,4.07591489 219.416658,-2.13162821e-14 224.058413,-2.13162821e-14 L192.388924,-2.13162821e-14 L192.388924,0.000829787234 Z" id="Shape" fill="url(#linearGradient-5)"></path>
            </g>
        </g>
    </g>
</svg>